<svg width="26" height="26" viewBox="0 0 26 26" fill="none" xmlns="http://www.w3.org/2000/svg">
<path d="M11.1584 22.75C11.3397 23.0798 11.6063 23.3549 11.9303 23.5465C12.2542 23.738 12.6237 23.8391 13.0001 23.8391C13.3764 23.8391 13.7459 23.738 14.0699 23.5465C14.3938 23.3549 14.6604 23.0798 14.8417 22.75M6.5 8.66667C6.5 6.94276 7.18482 5.28946 8.40381 4.07047C9.62279 2.85149 11.2761 2.16667 13 2.16667C14.7239 2.16667 16.3772 2.85149 17.5962 4.07047C18.8152 5.28946 19.5 6.94276 19.5 8.66667C19.5 16.25 22.75 18.4167 22.75 18.4167H3.25C3.25 18.4167 6.5 16.25 6.5 8.66667Z" stroke="#DD3888" stroke-width="3" stroke-linecap="round" stroke-linejoin="round"/>
</svg>
