<svg width="18" height="15" viewBox="0 0 18 15" fill="none" xmlns="http://www.w3.org/2000/svg">
<path d="M10.875 1.5H7.125L5.25 3.75H3C2.60218 3.75 2.22064 3.90804 1.93934 4.18934C1.65804 4.47064 1.5 4.85218 1.5 5.25V12C1.5 12.3978 1.65804 12.7794 1.93934 13.0607C2.22064 13.342 2.60218 13.5 3 13.5H15C15.3978 13.5 15.7794 13.342 16.0607 13.0607C16.342 12.7794 16.5 12.3978 16.5 12V5.25C16.5 4.85218 16.342 4.47064 16.0607 4.18934C15.7794 3.90804 15.3978 3.75 15 3.75H12.75L10.875 1.5Z" stroke="#00B80F" stroke-width="1.5" stroke-linecap="round" stroke-linejoin="round"/>
<path d="M9 10.5C10.2426 10.5 11.25 9.49264 11.25 8.25C11.25 7.00736 10.2426 6 9 6C7.75736 6 6.75 7.00736 6.75 8.25C6.75 9.49264 7.75736 10.5 9 10.5Z" stroke="#00B80F" stroke-width="1.5" stroke-linecap="round" stroke-linejoin="round"/>
</svg>
