<svg width="15" height="15" viewBox="0 0 15 15" fill="none" xmlns="http://www.w3.org/2000/svg">
<path d="M1 13.6667C1 11.6667 2.23333 10.0933 4.38667 9.66667C6 9.34667 7.66667 8.33333 8.33333 7.66667M7.00015 13C5.82952 13.0035 4.70032 12.567 3.83649 11.7769C2.97267 10.9869 2.43733 9.90103 2.33664 8.73474C2.23595 7.56845 2.57728 6.40691 3.29292 5.48049C4.00855 4.55408 5.04623 3.93047 6.20015 3.73333C10.0001 3 11.0001 2.65333 12.3335 1C13.0001 2.33333 13.6668 3.78667 13.6668 6.33333C13.6668 10 10.4801 13 7.00015 13Z" stroke="#00B80F" stroke-width="2" stroke-linecap="round" stroke-linejoin="round"/>
</svg>
