<svg width="37" height="35" viewBox="0 0 37 35" fill="none" xmlns="http://www.w3.org/2000/svg">
<path d="M16.8333 20.8768H20.1666C21.0507 20.8768 21.8985 20.5256 22.5237 19.9005C23.1488 19.2754 23.5 18.4275 23.5 17.5435C23.5 16.6594 23.1488 15.8116 22.5237 15.1864C21.8985 14.5613 21.0507 14.2101 20.1666 14.2101H15.1666C14.1666 14.2101 13.3333 14.5435 12.8333 15.2101L3.49998 24.2101M10.1666 30.8768L12.8333 28.5435C13.3333 27.8768 14.1666 27.5435 15.1666 27.5435H21.8333C23.6666 27.5435 25.3333 26.8768 26.5 25.5435L34.1666 18.2102C34.8098 17.6024 35.1852 16.764 35.2102 15.8795C35.2352 14.9949 34.9078 14.1367 34.3 13.4935C33.6922 12.8504 32.8538 12.475 31.9693 12.45C31.0847 12.425 30.2265 12.7524 29.5833 13.3602L22.5833 19.8602M1.83331 22.5435L11.8333 32.5435M31.0002 11.7101C32.1669 10.5435 33.5002 9.04346 33.5002 7.21013C33.6167 6.19167 33.3859 5.16372 32.8451 4.29285C32.3044 3.42199 31.4854 2.75925 30.5209 2.41203C29.5564 2.06481 28.5029 2.05346 27.5311 2.37982C26.5594 2.70617 25.7263 3.35112 25.1669 4.21013C24.5719 3.41776 23.7386 2.837 22.7893 2.5531C21.84 2.26919 20.8247 2.2971 19.8924 2.63273C18.9601 2.96835 18.1599 3.59402 17.6094 4.41787C17.0589 5.24172 16.787 6.22036 16.8336 7.21013C16.8336 9.21013 18.1669 10.5435 19.3336 11.8768L25.1669 17.5435L31.0002 11.7101Z" stroke="#DD3888" stroke-width="3" stroke-linecap="round" stroke-linejoin="round"/>
</svg>
