<svg width="31" height="34" viewBox="0 0 31 34" fill="none" xmlns="http://www.w3.org/2000/svg">
<path d="M8.83335 31.5433H22.1667M15.5 26.5433V31.5433M4.06669 14.8766C3.80802 14.0062 3.75614 13.0873 3.91519 12.1933C4.07425 11.2992 4.43984 10.4547 4.98285 9.72682C5.52586 8.99897 6.23131 8.40795 7.04301 8.00082C7.85472 7.59368 8.75026 7.38167 9.65835 7.38167C10.5664 7.38167 11.462 7.59368 12.2737 8.00082C13.0854 8.40795 13.7908 8.99897 14.3339 9.72682C14.8769 10.4547 15.2425 11.2992 15.4015 12.1933C15.5606 13.0873 15.5087 14.0062 15.25 14.8766M15.7335 14.8766C15.4749 14.0062 15.423 13.0873 15.5821 12.1933C15.7411 11.2992 16.1067 10.4547 16.6497 9.72682C17.1927 8.99897 17.8982 8.40795 18.7099 8.00082C19.5216 7.59368 20.4171 7.38167 21.3252 7.38167C22.2333 7.38167 23.1289 7.59368 23.9406 8.00082C24.7523 8.40795 25.4577 8.99897 26.0007 9.72682C26.5437 10.4547 26.9093 11.2992 27.0684 12.1933C27.2274 13.0873 27.1756 14.0062 26.9169 14.8766M21.3334 7.37679C21.3334 6.61075 21.1825 5.8522 20.8893 5.14447C20.5962 4.43674 20.1665 3.79368 19.6248 3.252C19.0831 2.71033 18.4401 2.28065 17.7323 1.98749C17.0246 1.69434 16.2661 1.54346 15.5 1.54346C14.734 1.54346 13.9754 1.69434 13.2677 1.98749C12.56 2.28065 11.9169 2.71033 11.3752 3.252C10.8336 3.79368 10.4039 4.43674 10.1107 5.14447C9.81757 5.8522 9.66669 6.61075 9.66669 7.37679M15.5 24.8766C23.8334 24.8766 28.8334 20.3933 28.8334 14.8766H2.16669C2.16669 20.3933 7.16669 24.8766 15.5 24.8766Z" stroke="currentColor" stroke-width="3" stroke-linecap="round" stroke-linejoin="round"/>
</svg>
