<svg width="35" height="29" viewBox="0 0 35 29" fill="none" xmlns="http://www.w3.org/2000/svg">
<path d="M30.8333 20.21V5.21004C30.8333 4.32599 30.4821 3.47814 29.857 2.85302C29.2319 2.2279 28.384 1.87671 27.5 1.87671H7.49995C6.6159 1.87671 5.76805 2.2279 5.14293 2.85302C4.51781 3.47814 4.16662 4.32599 4.16662 5.21004V20.21M30.8333 20.21H4.16662M30.8333 20.21L32.9666 24.46C33.0951 24.715 33.1559 24.9987 33.1433 25.284C33.1306 25.5692 33.0449 25.8464 32.8943 26.089C32.7438 26.3316 32.5334 26.5315 32.2834 26.6694C32.0334 26.8073 31.7521 26.8787 31.4666 26.8767H3.53329C3.24777 26.8787 2.96653 26.8073 2.71653 26.6694C2.46653 26.5315 2.25616 26.3316 2.10558 26.089C1.95501 25.8464 1.86928 25.5692 1.85662 25.284C1.84396 24.9987 1.90479 24.715 2.03329 24.46L4.16662 20.21" stroke="#DD3888" stroke-width="3" stroke-linecap="round" stroke-linejoin="round"/>
</svg>
