<svg width="15" height="19" viewBox="0 0 15 19" fill="none" xmlns="http://www.w3.org/2000/svg">
<path d="M14.1667 7.9871C14.1667 12.9871 7.50001 17.9871 7.50001 17.9871C7.50001 17.9871 0.833344 12.9871 0.833344 7.9871C0.833344 6.21899 1.53572 4.5233 2.78596 3.27306C4.03621 2.02281 5.7319 1.32043 7.50001 1.32043C9.26812 1.32043 10.9638 2.02281 12.2141 3.27306C13.4643 4.5233 14.1667 6.21899 14.1667 7.9871Z" fill="#DD3888"/>
<path d="M7.50001 10.4871C8.88072 10.4871 10 9.36781 10 7.9871C10 6.60639 8.88072 5.4871 7.50001 5.4871C6.1193 5.4871 5.00001 6.60639 5.00001 7.9871C5.00001 9.36781 6.1193 10.4871 7.50001 10.4871Z" fill="#DD3888"/>
<path d="M14.1667 7.9871C14.1667 12.9871 7.50001 17.9871 7.50001 17.9871C7.50001 17.9871 0.833344 12.9871 0.833344 7.9871C0.833344 6.21899 1.53572 4.5233 2.78596 3.27306C4.03621 2.02281 5.7319 1.32043 7.50001 1.32043C9.26812 1.32043 10.9638 2.02281 12.2141 3.27306C13.4643 4.5233 14.1667 6.21899 14.1667 7.9871Z" stroke="#F2F2F2" stroke-linecap="round" stroke-linejoin="round"/>
<path d="M7.50001 10.4871C8.88072 10.4871 10 9.36781 10 7.9871C10 6.60639 8.88072 5.4871 7.50001 5.4871C6.1193 5.4871 5.00001 6.60639 5.00001 7.9871C5.00001 9.36781 6.1193 10.4871 7.50001 10.4871Z" stroke="#F2F2F2" stroke-linecap="round" stroke-linejoin="round"/>
</svg>
