<svg width="16" height="18" viewBox="0 0 16 18" fill="none" xmlns="http://www.w3.org/2000/svg">
<path d="M4.25 7.15381V4.90381C4.25 3.90925 4.64509 2.95542 5.34835 2.25216C6.05161 1.5489 7.00544 1.15381 8 1.15381C8.99456 1.15381 9.94839 1.5489 10.6517 2.25216C11.3549 2.95542 11.75 3.90925 11.75 4.90381V7.15381M8.75 11.6538C8.75 12.068 8.41421 12.4038 8 12.4038C7.58579 12.4038 7.25 12.068 7.25 11.6538C7.25 11.2396 7.58579 10.9038 8 10.9038C8.41421 10.9038 8.75 11.2396 8.75 11.6538ZM2.75 7.15381H13.25C14.0784 7.15381 14.75 7.82538 14.75 8.65381V14.6538C14.75 15.4822 14.0784 16.1538 13.25 16.1538H2.75C1.92157 16.1538 1.25 15.4822 1.25 14.6538V8.65381C1.25 7.82538 1.92157 7.15381 2.75 7.15381Z" stroke="#DD3888" stroke-width="2" stroke-linecap="round" stroke-linejoin="round"/>
</svg>
