<svg width="28" height="28" viewBox="0 0 28 28" fill="none" xmlns="http://www.w3.org/2000/svg">
<path d="M25 14.3333V23.6667C25 24.3739 24.719 25.0522 24.219 25.5523C23.7189 26.0524 23.0406 26.3333 22.3333 26.3333H3.66667C2.95942 26.3333 2.28115 26.0524 1.78105 25.5523C1.28095 25.0522 1 24.3739 1 23.6667V5C1 4.29276 1.28095 3.61448 1.78105 3.11438C2.28115 2.61428 2.95942 2.33333 3.66667 2.33333H13M18.3333 5H26.3333M22.3333 1V9M25 18.3333L20.8853 14.2186C20.3853 13.7187 19.7071 13.4378 19 13.4378C18.2929 13.4378 17.6147 13.7187 17.1147 14.2186L5 26.3333M11.6667 10.3333C11.6667 11.8061 10.4728 13 9 13C7.52724 13 6.33333 11.8061 6.33333 10.3333C6.33333 8.86057 7.52724 7.66667 9 7.66667C10.4728 7.66667 11.6667 8.86057 11.6667 10.3333Z" stroke="#DD3888" stroke-width="2" stroke-linecap="round" stroke-linejoin="round"/>
</svg>
