<svg width="38" height="30" viewBox="0 0 38 30" fill="none" xmlns="http://www.w3.org/2000/svg">
<path d="M35.2366 -3.67935e-05C36.7782 4.40453 37.549 8.77239 37.549 13.1036C37.549 18.0954 36.2276 22.0962 33.5848 25.106C30.9421 28.1892 27.0881 29.7308 22.0229 29.7308V22.7936C25.9136 22.7936 27.8589 20.2977 27.8589 15.3058V13.6541H20.8116V-3.67935e-05H35.2366ZM14.425 -3.67935e-05C15.8932 4.47794 16.6273 8.8458 16.6273 13.1036C16.6273 18.0954 15.3426 22.0962 12.7733 25.106C10.1305 28.1892 6.27652 29.7308 1.21127 29.7308V22.7936C5.02856 22.7936 6.93721 20.2977 6.93721 15.3058V13.6541H1.44755e-05V-3.67935e-05H14.425Z" fill="#DD3888" />
</svg>
